<svg width="20" height="20" fill="none" xmlns="http://www.w3.org/2000/svg"><g clip-path="url(#clip0_66_2425)"><path d="M12.5 15.833c1-3.065 2.105-4.17 5-5-2.895-.829-4-1.935-5-5-1 3.065-2.105 4.171-5 5 2.895.83 4 1.935 5 5zm-6.667-7.5c.5-1.533 1.053-2.086 2.5-2.5-1.447-.414-2-.966-2.5-2.5-.5 1.534-1.052 2.086-2.5 2.5 1.448.414 2 .967 2.5 2.5zm1.25 8.334c.25-.767.526-1.043 1.25-1.25-.724-.208-1-.484-1.25-1.25-.25.766-.526 1.042-1.25 1.25.724.207 1 .483 1.25 1.25z" stroke="#fff" stroke-width="1.5" stroke-linejoin="round"/></g><defs><clipPath id="clip0_66_2425"><path fill="#fff" d="M0 0h20v20H0z"/></clipPath></defs></svg>