<svg width="24" height="24" fill="none" xmlns="http://www.w3.org/2000/svg"><g clip-path="url(#clip0_66_44616)"><path d="M15 19c1.2-3.678 2.526-5.005 6-6-3.474-.995-4.8-2.322-6-6-1.2 3.678-2.526 5.005-6 6 3.474.995 4.8 2.322 6 6zm-8-9c.6-1.84 1.263-2.503 3-3-1.737-.497-2.4-1.16-3-3-.6 1.84-1.263 2.503-3 3 1.737.497 2.4 1.16 3 3zm1.5 10c.3-.92.631-1.251 1.5-1.5-.869-.249-1.2-.58-1.5-1.5-.3.92-.631 1.251-1.5 1.5.869.249 1.2.58 1.5 1.5z" stroke="#000" stroke-width="1.5" stroke-linejoin="round"/></g><defs><clipPath id="clip0_66_44616"><path fill="#fff" d="M0 0h24v24H0z"/></clipPath></defs></svg>