<svg width="39" height="38" fill="none" xmlns="http://www.w3.org/2000/svg"><path fill-rule="evenodd" clip-rule="evenodd" d="M26.969 24.721l6.333 6.341a.794.794 0 01-.032 1.094l-1.108 1.11a.791.791 0 01-1.124 0l-6.333-6.341a4.136 4.136 0 01-.475-.571l-1.188-1.585a11.075 11.075 0 01-6.92 2.425 11.086 11.086 0 01-10.84-8.617A11.1 11.1 0 0111.29 6.092a11.075 11.075 0 0113.486 3.122 11.107 11.107 0 01-.072 13.859l1.583 1.093c.247.159.476.345.68.555zM8.206 16.097c0 4.378 3.545 7.927 7.917 7.927a7.91 7.91 0 005.598-2.322 7.93 7.93 0 002.319-5.605c0-4.377-3.545-7.926-7.917-7.926s-7.917 3.549-7.917 7.926z" fill="#F08835"/></svg>